<?xml version="1.0" encoding="utf-8"?>
<!DOCTYPE svg PUBLIC "-//W3C//DTD SVG 1.1//EN" "http://www.w3.org/Graphics/SVG/1.1/DTD/svg11.dtd">
<svg version="1.1" id="Layer_1" xmlns="http://www.w3.org/2000/svg" xmlns:xlink="http://www.w3.org/1999/xlink" x="0px" y="0px"
	 width="801.266px" height="222.785px" viewBox="0 0 801.266 222.785" enable-background="new 0 0 801.266 222.785"
	 xml:space="preserve">
<g>
	<path fill="#F49C14" d="M222.92,43.569c-87.399,0-158.231,29.384-158.231,65.65c0,36.259,70.832,65.657,158.231,65.657
		c87.393,0,158.224-29.398,158.224-65.657C381.144,72.953,310.313,43.569,222.92,43.569 M247.486,58.471
		c-1.226-1.358-1.782-1.72-1.543-2.298c0.058-0.163,0.214-0.254,0.402-0.254c0.518,0,1.472,0.649,2.615,1.8
		c7.262,7.246,7.606,18.973-0.255,28.527c-9.906,12.034-23.827,23.543-36.008,29.9c-9.402,4.917-18.145,9.215-42.588,10.363
		c-7.325,0.342-11.902,0.079-11.918-0.561c-0.031-0.759,2.588-0.769,8.685-1.072c0,0,9.742-0.342,19.248-1.844
		c9.754-1.536,18.176-5.032,25.325-8.861c18.932-10.162,31.029-24.196,35.78-29.963C254.635,75.185,253.583,65.227,247.486,58.471
		 M221.711,86.542c9.236-13.475,2.977-21.218-3.046-28.981c-1.059-1.358-1.528-1.732-1.266-2.332c0.065-0.148,0.308-0.23,0.489-0.23
		c0.585,0,1.599,1.011,2.43,1.867c2.867,2.964,7.001,7.566,8.266,13.26c1.276,5.735-0.445,11.596-4.883,17.929
		c-8.938,12.742-18.555,21.261-23.743,24.838c-7.731,5.324-12.568,7.127-23.038,8.979c-9.183,1.623-17.377,1.746-17.372,0.872
		c0-0.626,0.576-0.691,3.214-0.953c1.278-0.131,3.036-0.313,5.446-0.607c16.973-2.34,24.027-5.152,31.039-10.428
		C205.75,105.827,214.129,97.619,221.711,86.542 M183.753,71.225c0.378-0.384,0.997-0.384,1.379,0
		c0.691,0.676,1.365,1.366,2.044,2.072l0.397,0.412l0.494,0.518l0.327,0.369l0.328,0.36l0.373,0.428l0.178,0.213l0.174,0.231
		l0.231,0.296l0.229,0.296l0.229,0.311l0.255,0.372l0.255,0.367l0.116,0.197l0.12,0.198l0.159,0.264l0.146,0.254l0.133,0.264
		l0.188,0.377l0.174,0.378l0.084,0.189l0.072,0.188l0.123,0.292l0.099,0.292l0.108,0.296l0.089,0.289l0.092,0.32l0.072,0.313
		l0.082,0.327l0.06,0.329l0.056,0.32l0.043,0.271l0.039,0.279l0.024,0.278l0.017,0.2l0.017,0.211l0.017,0.377l0.01,0.395v0.38
		l-0.026,0.377l-0.017,0.395l-0.027,0.313l-0.029,0.327l-0.043,0.313l-0.031,0.237l-0.048,0.238l-0.033,0.24l-0.041,0.237
		l-0.084,0.412l-0.091,0.394l-0.106,0.402l-0.105,0.395l-0.075,0.264l-0.072,0.254l-0.082,0.264l-0.084,0.271l-0.181,0.518
		l-0.146,0.395l-0.164,0.395l-0.156,0.394l-0.123,0.294l-0.125,0.296l-0.26,0.584l-0.241,0.518l-0.248,0.508l-0.26,0.511
		l-0.197,0.378l-0.188,0.379l-0.207,0.376l-0.205,0.362l-0.265,0.477c-2.234,4.009-4.902,7.771-7.937,11.223l-0.313,0.345
		l-0.311,0.346l-0.296,0.328l-0.289,0.313l-0.426,0.437l-0.419,0.419l-0.419,0.418l-0.434,0.402l-0.233,0.207l-0.212,0.187
		l-0.231,0.207l-0.221,0.181l-0.41,0.347l-0.421,0.318l-0.426,0.317l-0.222,0.159l-0.214,0.149l-0.214,0.146l-0.229,0.156
		l-0.296,0.179l-0.296,0.19l-0.313,0.18l-0.222,0.133l-0.238,0.133l-0.467,0.253l-0.477,0.238l-0.486,0.23l-0.433,0.198
		l-0.438,0.194l-0.451,0.181l-0.443,0.174l-0.304,0.115l-0.313,0.106l-0.609,0.214l-0.385,0.13l-0.388,0.128l-0.395,0.12
		l-0.383,0.116c-0.546,0.163-1.086,0.319-1.627,0.477l-0.067,0.014l-0.063,0.01l-0.108,0.01h-0.115l-0.108-0.01l-0.106-0.023
		l-0.086-0.034l-0.084-0.033l-0.075-0.051l-0.074-0.056l-0.024-0.033l-0.041-0.034l-0.026-0.038l-0.024-0.044l-0.038-0.082
		l-0.036-0.086l-0.024-0.111l-0.024-0.105l-0.007-0.097l0.007-0.115l0.024-0.116l0.031-0.115l0.012-0.067l0.017-0.056l18.6-44.156
		C183.586,71.408,183.654,71.309,183.753,71.225 M289.31,154.394l-0.089,0.014l-0.108,0.02l-0.106,0.015l-0.149,0.036l-0.145,0.005
		l-0.173,0.02l-0.184,0.007l-0.183-0.007l-0.186-0.024l-0.188-0.036l-0.176-0.034l-0.171-0.045l-0.092-0.036l-0.079-0.032
		l-0.143-0.058l-0.115-0.067l-0.113-0.069l-0.106-0.085l-0.108-0.081l-0.075-0.082l-0.074-0.082l-0.063-0.101l-0.053-0.097
		l-0.014-0.044l-0.024-0.055v-0.041l-0.017-0.058l-0.017-0.082v-0.072l0.017-0.077l0.048-0.156c1.021-2.405,1.981-4.838,2.877-7.296
		l0.205-0.575l0.205-0.573l0.142-0.388l0.13-0.412l0.108-0.327l0.089-0.313l0.13-0.443l0.116-0.434l0.113-0.438l0.07-0.26
		l0.065-0.265l0.072-0.347l0.065-0.361l0.077-0.347l0.056-0.424l0.05-0.429l0.034-0.212l0.015-0.207l0.015-0.289l0.019-0.279v-0.279
		v-0.342l-0.007-0.356l-0.02-0.344l-0.031-0.354l-0.048-0.344l-0.067-0.335l-0.021-0.176l-0.036-0.171l-0.048-0.171l-0.043-0.166
		l-0.063-0.246l-0.082-0.255l-0.091-0.245l-0.091-0.251l-0.082-0.212l-0.099-0.212l-0.097-0.207l-0.074-0.154l-0.092-0.158
		l-0.082-0.154l-0.084-0.154l-0.161-0.265l-0.174-0.263l-0.181-0.268l-0.181-0.243l-0.19-0.258l-0.132-0.153l-0.13-0.145
		l-0.263-0.299l-0.272-0.296l-0.164-0.171l-0.164-0.164l-0.347-0.337l-0.352-0.313l-0.354-0.329l-0.313-0.263l-0.313-0.255
		l-0.287-0.239l-0.585-0.46l-0.85-0.671l-0.884-0.657l-0.876-0.66l-0.888-0.65l-0.583-0.424l-0.592-0.419l-0.6-0.429l-0.599-0.426
		l-1.209-0.838l-0.263-0.176l-0.123-0.087l-0.181-0.142l-0.132-0.106l-0.13-0.115l-0.092-0.075l-0.074-0.071l-0.065-0.075
		l-0.065-0.074l-0.101-0.116l-0.089-0.13l-0.082-0.135l-0.065-0.13l-0.058-0.13l-0.033-0.14l-0.032-0.14l-0.019-0.067l-0.007-0.072
		v-0.065v-0.074V121l0.007-0.065l0.019-0.146l0.032-0.125l0.033-0.123l0.048-0.113l0.058-0.115l0.043-0.082l0.041-0.067l0.096-0.14
		l0.101-0.138l0.082-0.099l0.063-0.084l0.108-0.099l0.089-0.092l0.143-0.123l0.099-0.096l0.19-0.166
		c0.672-0.559,1.37-1.101,2.085-1.592l0.337-0.248l0.181-0.102l0.173-0.11l0.171-0.111l0.221-0.122l0.224-0.123l0.229-0.105
		l0.221-0.106l0.229-0.092l0.238-0.081l0.197-0.056l0.205-0.061l0.207-0.048l0.212-0.034l0.142-0.017l0.14-0.015l0.143-0.017
		l0.137-0.02l0.246-0.014h0.23h0.248h0.181l0.179,0.014l0.224,0.02l0.205,0.024l0.279,0.023l0.195,0.034l0.381,0.048
		c3.327,0.438,6.638,0.939,9.949,1.505l0.378,0.065l0.188,0.023l0.272,0.041l0.214,0.027l0.205,0.014l0.14,0.01h0.132h0.116h0.113
		l0.184-0.01l0.178-0.023l0.183-0.039l0.173-0.033l0.161-0.059l0.159-0.058l0.137-0.064l0.152-0.082l0.137-0.099l0.13-0.102
		l0.099-0.089l0.089-0.089l0.094-0.102l0.056-0.072l0.067-0.074l0.058-0.082l0.067-0.079l0.106-0.184l0.106-0.188l0.091-0.19
		l0.08-0.188l0.082-0.207l0.105-0.272l0.061-0.173l0.13-0.369l1.866-5.611l0.12-0.37l0.061-0.181l0.091-0.271l0.039-0.215
		l0.043-0.204l0.031-0.207l0.02-0.113v-0.099l0.007-0.099v-0.106l-0.007-0.158l-0.02-0.148l-0.031-0.148l-0.036-0.148l-0.045-0.146
		l-0.06-0.15l-0.031-0.066l-0.039-0.057l-0.036-0.064l-0.041-0.067l-0.048-0.059l-0.048-0.057l-0.108-0.106l-0.106-0.108
		l-0.13-0.089l-0.125-0.082l-0.13-0.083l-0.14-0.064l-0.149-0.049l-0.092-0.035l-0.101-0.033l-0.104-0.034l-0.108-0.016
		l-0.212-0.049l-0.133-0.017l-0.149-0.014l-0.171-0.018l-0.18-0.017l-0.198-0.014l-0.404-0.017l-31.559-1.226l-0.361-0.016h-0.181
		l-0.27-0.007h-0.19l-0.207,0.007l-0.145,0.008l-0.159,0.007l-0.144,0.017l-0.152,0.01l-0.221,0.032l-0.214,0.049l-0.212,0.049
		l-0.214,0.05l-0.212,0.08l-0.198,0.068l-0.214,0.097l-0.197,0.089l-0.123,0.067l-0.13,0.073l-0.132,0.066l-0.132,0.082
		l-0.166,0.099l-0.162,0.116l-0.219,0.146l-0.151,0.101l-0.287,0.212l-13.96,10.032l-0.238,0.166l-0.115,0.092l-0.174,0.13
		l-0.123,0.099l-0.113,0.106l-0.123,0.108l-0.106,0.115l-0.108,0.113l-0.05,0.064l-0.055,0.082l-0.061,0.065l-0.031,0.067
		l-0.06,0.099l-0.055,0.099l-0.034,0.115l-0.041,0.113l-0.032,0.135l-0.017,0.131l-0.01,0.139l0.01,0.141l0.01,0.064v0.082
		l0.031,0.146l0.034,0.159l0.048,0.154l0.041,0.099l0.05,0.099l0.089,0.197l0.058,0.135l0.074,0.12l0.108,0.172l0.063,0.117
		l0.132,0.212l2.673,4.356l0.243,0.392l0.115,0.198l0.174,0.298l0.123,0.227l0.113,0.233l0.108,0.222l0.089,0.238l0.094,0.222
		l0.038,0.123l0.034,0.115l0.024,0.105l0.034,0.116l0.026,0.156l0.021,0.147l0.017,0.156l0.008,0.188v0.197l-0.008,0.197
		l-0.031,0.181l-0.043,0.19l-0.048,0.188l-0.05,0.164l-0.063,0.166l-0.084,0.162l-0.075,0.166l-0.063,0.099l-0.061,0.105
		l-0.14,0.205l-0.14,0.197l-0.099,0.146l-0.13,0.143l-0.115,0.14l-0.13,0.146l-0.166,0.184l-0.173,0.188l-0.178,0.173
		c-1.423,1.445-2.976,2.76-4.611,3.935v0.008l-0.568,0.404l-0.573,0.385l-0.289,0.19l-0.296,0.188l-0.378,0.248l-0.393,0.243
		l-0.397,0.231l-0.505,0.299l-0.51,0.288l-0.518,0.271l-0.527,0.265l-0.527,0.26l-0.532,0.246l-0.527,0.23l-0.501,0.212
		l-0.501,0.198l-0.51,0.197l-0.508,0.183l-0.503,0.181l-0.443,0.137l-0.426,0.143l-0.436,0.13l-0.318,0.092l-0.339,0.091
		l-0.535,0.147l-0.563,0.13l-0.554,0.133l-0.549,0.115l-0.38,0.082l-0.369,0.079l-0.763,0.133l-0.619,0.101l-0.631,0.097
		l-0.633,0.099l-0.453,0.067l-0.457,0.056l-0.494,0.061l-0.503,0.055l-0.845,0.092l-0.828,0.082l-0.775,0.064l-0.763,0.067
		l-0.91,0.075l-0.93,0.074l-2.162,0.145l-2.167,0.115l-2.162,0.126l-1.57,0.072l-1.57,0.067l-1.666,0.048l-1.676,0.058l-3.246,0.092
		l-3.253,0.055l-3.255,0.037l-2.548,0.004l-2.533-0.004l-2.542-0.02l-3.041-0.041l-3.039-0.065l-3.051-0.081l-3.041-0.102
		l-3.039-0.115l-1.914-0.082l-1.9-0.097l-1.897-0.101l-1.907-0.106l-2.53-0.154l-2.531-0.173l-2.528-0.188l-3.027-0.231l-3.021-0.27
		l-3.017-0.289l-3.015-0.313l-1.521-0.181l-1.503-0.171l-0.205-0.01h-0.197h-0.214l-0.205,0.01l-0.105,0.024l-0.106,0.01
		l-0.111,0.021l-0.106,0.017l-0.13,0.049l-0.146,0.043l-0.142,0.038l-0.188,0.085l-0.181,0.082l-0.173,0.099l-0.174,0.115
		l-0.161,0.12l-0.166,0.125l-0.147,0.14l-0.135,0.154l-0.13,0.13l-0.123,0.179l-0.106,0.171l-0.108,0.181l-0.082,0.173l-2.892,6.318
		l-0.067,0.113l-0.055,0.115l-0.082,0.108l-0.082,0.089l-0.092,0.099l-0.099,0.099l-0.115,0.085l-0.108,0.063l-0.121,0.074
		l-0.13,0.056l-0.135,0.051l-0.123,0.036l-0.14,0.015l-0.149,0.023l-0.13,0.008h-0.14l-0.132-0.015l-0.138-0.026l-0.123-0.024
		l-0.116-0.038l-0.01,0.007c-27.022-9.614-44.086-23.738-44.086-39.473c0-21.742,32.534-40.416,78.951-48.394h0.007l0.115-0.018
		c0.568-0.099,1.149,0.049,1.587,0.412c1.019,0.861,2.037,1.724,3.036,2.614l0.067,0.047l0.067,0.059l0.063,0.099l0.084,0.106
		l0.058,0.099l0.048,0.116l0.041,0.113l0.034,0.124l0.027,0.123l0.007,0.117v0.113l-0.026,0.116l-0.015,0.115l-0.033,0.117
		l-0.058,0.115l-24.778,54.145l-3.995,8.709l-0.043,0.118l-0.041,0.111l-0.031,0.105l-0.026,0.097l-0.022,0.079l-0.01,0.082
		l-0.017,0.092l-0.017,0.161v0.173l0.01,0.159l0.024,0.137l0.032,0.143l0.036,0.14l0.045,0.13l0.06,0.123l0.065,0.118l0.089,0.101
		l0.091,0.116l0.089,0.11l0.108,0.087l0.123,0.084l0.123,0.082l0.143,0.064l0.145,0.067l0.159,0.049l0.161,0.033l0.167,0.034
		l0.166,0.014c16.938,0.872,33.562,0.559,48.721-0.934l0.985-0.102l0.963-0.096l1.305-0.149l1.291-0.149l1.3-0.164l1.271-0.178
		l1.293-0.192l1.281-0.202l1.298-0.234l0.647-0.12l0.641-0.123l0.97-0.197l0.971-0.212l0.951-0.217l0.963-0.227l1.083-0.281
		l1.086-0.296l1.086-0.313l1.067-0.32l1.066-0.344l1.062-0.354l1.053-0.378l0.937-0.344l0.927-0.364l0.93-0.368l0.912-0.385
		l0.92-0.396l0.566-0.262l0.561-0.248l0.573-0.263l0.568-0.279l1.124-0.544l0.585-0.294l0.59-0.296l0.583-0.313l0.585-0.304
		l1.158-0.63l1.151-0.644l1.131-0.657l1.276-0.739l1.247-0.766l1.257-0.777l0.92-0.576l0.913-0.592l0.946-0.616l0.951-0.617
		l1.522-1.001l1.497-1.012l0.754-0.518l0.746-0.518l0.742-0.508l0.739-0.518l1.189-0.842l1.185-0.835l1.175-0.845l1.175-0.856
		l1.158-0.863l1.291-0.969l0.643-0.483l0.631-0.503l0.845-0.659l0.848-0.655l0.848-0.677l1.042-0.835l1.033-0.848l1.045-0.863
		l1.012-0.871l1.035-0.87l1.002-0.88c1.645-1.438,3.229-2.917,4.789-4.428l0.419-0.402l0.402-0.404l0.537-0.543l0.525-0.54
		l0.524-0.545l0.583-0.624l0.296-0.328l0.289-0.321l0.388-0.426l0.378-0.436l0.359-0.427l0.455-0.56l0.45-0.556l0.221-0.289
		l0.207-0.278l0.318-0.435l0.306-0.428l0.294-0.437l0.296-0.434l0.181-0.264l0.156-0.264l0.166-0.254l0.147-0.254l0.212-0.353
		l0.197-0.355l0.19-0.353l0.214-0.438l0.222-0.426l0.205-0.436l0.19-0.435l0.181-0.443l0.099-0.24l0.092-0.24l0.082-0.236
		l0.082-0.239l0.104-0.32l0.099-0.32l0.091-0.321l0.116-0.387l0.089-0.395l0.092-0.384l0.067-0.388l0.082-0.402l0.048-0.443
		l0.058-0.451l0.041-0.444l0.034-0.443l0.007-0.452l0.007-0.444l-0.007-0.452l-0.024-0.443l-0.031-0.461l-0.053-0.444l-0.048-0.395
		l-0.058-0.386l-0.072-0.395l-0.075-0.386l-0.099-0.385l-0.051-0.247l-0.055-0.236l-0.075-0.247l-0.067-0.247l-0.147-0.478
		l-0.166-0.476l-0.145-0.444l-0.173-0.429l-0.171-0.435l-0.19-0.436l-0.19-0.428l-0.123-0.264l-0.123-0.264l-0.272-0.525
		l-0.271-0.525l-0.049-0.099l-0.031-0.099l-0.026-0.091l-0.017-0.089v-0.088l0.017-0.084l0.017-0.082l0.034-0.073l0.041-0.066
		l0.051-0.057l0.038-0.067l0.075-0.057l0.065-0.049l0.084-0.042l0.058-0.024l0.048-0.025l0.132-0.039l0.116-0.028l0.137-0.021
		l0.133-0.011h0.149l0.146,0.011l0.031,0.007c42.127,8.659,71.008,26.416,71.008,46.891
		C352.412,128.464,327.104,145.232,289.31,154.394"/>
	<path fill="#F49C14" d="M601.698,69.611h-41.467v78.645h41.467c14.694,0,27.821-9.19,32.844-22.999h0.006
		c3.835-10.544,3.835-22.102-0.006-32.647C629.52,78.803,616.393,69.611,601.698,69.611 M595.874,133.694h-15.251V84.175h15.251
		c8.571,0,16.226,5.363,19.16,13.415c2.666,7.328,2.666,15.361,0,22.688C612.1,128.334,604.445,133.694,595.874,133.694"/>
	<path fill="#F49C14" d="M499.399,69.624l-28.626,78.647h20.15l5.3-14.567l35.03-0.01l5.305,14.563h20.147L528.081,69.61
		L499.399,69.624z M501.525,119.141l12.217-33.569l12.215,33.555L501.525,119.141z"/>
	<polygon fill="#F49C14" points="435.916,133.694 435.916,69.611 415.526,69.611 415.526,148.256 467.954,148.256 467.954,133.694 	
		"/>
	<path fill="#F49C14" d="M687.704,69.61l-28.682,0.014l-28.626,78.647h20.147l5.303-14.567l35.033-0.01l5.299,14.563h20.148
		L687.704,69.61z M661.146,119.141l12.217-33.569l12.215,33.555L661.146,119.141z"/>
</g>
</svg>
